<?xml version="1.0" standalone="no"?>
<!DOCTYPE svg PUBLIC "-//W3C//DTD SVG 20010904//EN"
 "http://www.w3.org/TR/2001/REC-SVG-20010904/DTD/svg10.dtd">
<svg version="1.0" xmlns="http://www.w3.org/2000/svg"
 width="512.000000pt" height="512.000000pt" viewBox="0 0 512.000000 512.000000"
 preserveAspectRatio="xMidYMid meet">
<metadata>
Created by potrace 1.14, written by Peter Selinger 2001-2017
</metadata>
<g transform="translate(0.000000,512.000000) scale(0.100000,-0.100000)"
fill="#000000" stroke="none">
<path d="M1401 4824 c-105 -28 -203 -94 -266 -179 -19 -25 -708 -1215 -1015
-1752 -102 -178 -122 -240 -115 -359 6 -102 26 -155 126 -327 45 -78 96 -167
112 -197 16 -30 35 -62 41 -70 6 -8 16 -24 22 -35 6 -11 122 -212 257 -447
136 -235 257 -444 268 -465 12 -21 30 -51 40 -68 11 -16 26 -43 34 -60 9 -16
26 -46 38 -66 12 -20 59 -102 105 -181 111 -193 172 -254 307 -309 l60 -24
1140 0 1140 0 65 24 c95 35 165 86 221 161 14 19 70 112 124 205 54 94 114
197 133 230 19 33 43 76 54 95 34 58 152 264 163 282 6 9 27 47 49 85 21 37
62 109 91 158 156 266 455 788 455 793 0 3 6 13 13 21 30 37 51 126 51 216 0
92 -5 129 -17 141 -4 4 -7 14 -7 22 0 12 -63 133 -100 192 -5 8 -84 146 -176
305 -92 160 -198 343 -236 409 -37 65 -68 119 -68 121 0 1 -31 55 -70 119 -38
65 -70 119 -70 121 0 3 -22 42 -49 87 -27 46 -110 189 -184 317 -75 129 -150
254 -168 276 -61 76 -150 132 -249 159 -82 22 -2238 22 -2319 0z"/>
</g>
</svg>
